<svg width="17" height="16" viewBox="0 0 17 16" fill="none" xmlns="http://www.w3.org/2000/svg">
<path d="M12.5853 10.9733L15.4396 13.8267L14.4926 14.7733L11.6384 11.92C11.1138 12.3378 10.5403 12.6578 9.91785 12.88C9.25986 13.1111 8.5841 13.2267 7.89055 13.2267C6.80576 13.2267 5.79656 12.9556 4.86293 12.4133C3.95598 11.88 3.24021 11.16 2.7156 10.2533C2.16431 9.32001 1.88867 8.31112 1.88867 7.22668C1.88867 6.14223 2.16431 5.13335 2.7156 4.20001C3.24021 3.29335 3.95598 2.57779 4.86293 2.05335C5.79656 1.50223 6.80576 1.22668 7.89055 1.22668C8.97533 1.22668 9.98453 1.50223 10.9182 2.05335C11.8251 2.57779 12.5453 3.29335 13.0788 4.20001C13.6212 5.13335 13.8924 6.14223 13.8924 7.22668C13.8924 7.92001 13.7768 8.59557 13.5456 9.25335C13.3234 9.87557 13.0033 10.4489 12.5853 10.9733ZM11.2383 10.48C11.6562 10.0533 11.9807 9.56446 12.2119 9.01335C12.4431 8.44446 12.5587 7.8489 12.5587 7.22668C12.5587 6.38223 12.3453 5.59557 11.9185 4.86668C11.5095 4.16446 10.9537 3.6089 10.2513 3.20001C9.52217 2.77335 8.73526 2.56001 7.89055 2.56001C7.04584 2.56001 6.25893 2.77335 5.52981 3.20001C4.82737 3.6089 4.27164 4.16446 3.86262 4.86668C3.43582 5.59557 3.22242 6.38223 3.22242 7.22668C3.22242 8.07112 3.43582 8.85779 3.86262 9.58668C4.27164 10.2889 4.82737 10.8445 5.52981 11.2533C6.25893 11.68 7.04584 11.8933 7.89055 11.8933C8.51296 11.8933 9.10871 11.7778 9.67777 11.5467C10.2291 11.3156 10.7181 10.9911 11.1449 10.5733L11.2383 10.48Z" fill="white"/>
</svg>
