<svg width="17" height="17" viewBox="0 0 17 17" fill="none" xmlns="http://www.w3.org/2000/svg">
<path d="M8.33585 13.86L11.6271 10.5533C12.2312 9.95777 12.6398 9.25555 12.853 8.44666C13.0573 7.65555 13.0573 6.86443 12.853 6.07332C12.6398 5.26443 12.2334 4.55999 11.6338 3.95999C11.0342 3.35999 10.3302 2.95332 9.52177 2.73999C8.73116 2.53555 7.94054 2.53555 7.14992 2.73999C6.34154 2.95332 5.63754 3.35999 5.03791 3.95999C4.43829 4.55999 4.03187 5.26443 3.81867 6.07332C3.61436 6.86443 3.61436 7.65555 3.81867 8.44666C4.03187 9.25555 4.44051 9.95777 5.04457 10.5533L8.33585 13.86ZM8.33585 15.74L4.0985 11.5C3.32565 10.7355 2.80597 9.82888 2.53947 8.77999C2.27297 7.76666 2.27297 6.75332 2.53947 5.73999C2.80597 4.6911 3.32343 3.78221 4.09184 3.01332C4.86025 2.24443 5.76857 1.72221 6.8168 1.44666C7.8295 1.18888 8.8422 1.18888 9.8549 1.44666C10.9031 1.72221 11.8115 2.24443 12.5799 3.01332C13.3483 3.78221 13.8657 4.6911 14.1322 5.73999C14.3987 6.75332 14.3987 7.76666 14.1322 8.77999C13.8657 9.82888 13.346 10.7355 12.5732 11.5L8.33585 15.74ZM8.33585 8.59332C8.5757 8.59332 8.79778 8.53332 9.0021 8.41332C9.20642 8.29332 9.36854 8.1311 9.48846 7.92666C9.60839 7.72221 9.66835 7.49999 9.66835 7.25999C9.66835 7.01999 9.60839 6.79777 9.48846 6.59332C9.36854 6.38888 9.20642 6.22666 9.0021 6.10666C8.79778 5.98666 8.5757 5.92666 8.33585 5.92666C8.096 5.92666 7.87392 5.98666 7.6696 6.10666C7.46528 6.22666 7.30316 6.38888 7.18324 6.59332C7.06331 6.79777 7.00335 7.01999 7.00335 7.25999C7.00335 7.49999 7.06331 7.72221 7.18324 7.92666C7.30316 8.1311 7.46528 8.29332 7.6696 8.41332C7.87392 8.53332 8.096 8.59332 8.33585 8.59332ZM8.33585 9.92666C7.85615 9.92666 7.41198 9.80666 7.00335 9.56666C6.59472 9.32666 6.27047 9.00221 6.03062 8.59332C5.79077 8.18443 5.67085 7.73777 5.67085 7.25332C5.67085 6.76888 5.79077 6.32443 6.03062 5.91999C6.27047 5.51555 6.59472 5.19332 7.00335 4.95332C7.41198 4.71332 7.85615 4.59332 8.33585 4.59332C8.81555 4.59332 9.25972 4.71332 9.66835 4.95332C10.077 5.19332 10.4012 5.51555 10.6411 5.91999C10.8809 6.32443 11.0008 6.76888 11.0008 7.25332C11.0008 7.73777 10.8809 8.18443 10.6411 8.59332C10.4012 9.00221 10.077 9.32666 9.66835 9.56666C9.25972 9.80666 8.81555 9.92666 8.33585 9.92666Z" fill="white"/>
</svg>
