<svg width="20" height="18" viewBox="0 0 20 18" fill="none" xmlns="http://www.w3.org/2000/svg">
<path d="M9.99219 3.20993C10.5727 2.68993 11.2382 2.34743 11.9889 2.18243C12.7395 2.01743 13.4801 2.03493 14.2107 2.23493C14.9713 2.44493 15.6294 2.82743 16.1848 3.38243C16.7403 3.93743 17.1231 4.59493 17.3333 5.35493C17.5335 6.08493 17.551 6.82243 17.3858 7.56743C17.2207 8.31243 16.8779 8.97993 16.3575 9.56993L9.99219 15.9299L3.62689 9.56993C3.10646 8.97993 2.76367 8.31243 2.59853 7.56743C2.4334 6.82243 2.45091 6.08493 2.65108 5.35493C2.86125 4.59493 3.24657 3.93743 3.80704 3.38243C4.36751 2.82743 5.02305 2.44493 5.77368 2.23493C6.50429 2.03493 7.2449 2.01743 7.99553 2.18243C8.74615 2.34743 9.41171 2.68993 9.99219 3.20993ZM15.1115 4.43993C14.7411 4.06993 14.3108 3.81743 13.8204 3.68243C13.33 3.54743 12.8346 3.53493 12.3341 3.64493C11.8337 3.75493 11.3884 3.98493 10.998 4.33493L9.99219 5.23493L8.98635 4.33493C8.60604 3.98493 8.16317 3.75493 7.65775 3.64493C7.15233 3.53493 6.65441 3.54743 6.164 3.68243C5.67359 3.81743 5.24324 4.06993 4.87293 4.43993C4.50262 4.80993 4.24741 5.23993 4.10729 5.72993C3.96717 6.21993 3.94966 6.71243 4.05475 7.20743C4.15983 7.70243 4.38252 8.14493 4.7228 8.53493L9.99219 13.8149L15.2616 8.53493C15.6019 8.14493 15.8245 7.70243 15.9296 7.20743C16.0347 6.71243 16.0172 6.21993 15.8771 5.72993C15.737 5.23993 15.4818 4.80993 15.1115 4.43993Z" fill="#9CA3AF"/>
</svg>
