<svg width="187" height="179" viewBox="0 0 187 179" fill="none" xmlns="http://www.w3.org/2000/svg">
<path d="M93.5 31.9217C99.2846 26.7506 105.917 23.3446 113.397 21.7038C120.877 20.063 128.257 20.237 135.538 22.2259C143.117 24.3142 149.675 28.118 155.21 33.6371C160.745 39.1563 164.56 45.6948 166.654 53.2525C168.649 60.512 168.824 67.846 167.178 75.2546C165.532 82.6632 162.117 89.3012 156.93 95.1684L93.5 158.415L30.0696 95.1684C24.8835 89.3012 21.4676 82.6632 19.822 75.2546C18.1764 67.846 18.351 60.512 20.3456 53.2525C22.44 45.6948 26.2798 39.1563 31.8648 33.6371C37.4499 28.118 43.9824 24.3142 51.4624 22.2259C58.743 20.237 66.1232 20.063 73.6032 21.7038C81.0832 23.3446 87.7155 26.7506 93.5 31.9217ZM144.514 44.1534C140.823 40.4739 136.535 37.963 131.648 36.6205C126.761 35.278 121.824 35.1537 116.838 36.2475C111.851 37.3414 107.413 39.6287 103.523 43.1092L93.5 52.0592L83.4768 43.1092C79.687 39.6287 75.2738 37.3414 70.2372 36.2475C65.2007 35.1537 60.239 35.278 55.352 36.6205C50.4651 37.963 46.1766 40.4739 42.4864 44.1534C38.7963 47.8328 36.2531 52.1089 34.8568 56.9817C33.4606 61.8545 33.286 66.7521 34.3332 71.6746C35.3804 76.5971 37.5995 80.9975 40.9904 84.8759L93.5 137.383L146.01 84.8759C149.401 80.9975 151.62 76.5971 152.667 71.6746C153.714 66.7521 153.54 61.8545 152.143 56.9817C150.747 52.1089 148.204 47.8328 144.514 44.1534Z" fill="#CC2C2C"/>
<path d="M144.514 44.1534C140.823 40.4739 136.535 37.963 131.648 36.6205C126.761 35.278 121.824 35.1537 116.838 36.2475C111.851 37.3414 107.413 39.6287 103.523 43.1092L93.5 52.0592L83.4768 43.1092C79.687 39.6287 75.2738 37.3414 70.2372 36.2475C65.2007 35.1537 60.239 35.278 55.352 36.6205C50.4651 37.963 46.1766 40.4739 42.4864 44.1534C38.7963 47.8328 36.2531 52.1089 34.8568 56.9817C33.4606 61.8545 33.286 66.7521 34.3332 71.6746C35.3804 76.5971 37.5995 80.9975 40.9904 84.8759L93.5 137.383L146.01 84.8759C149.401 80.9975 151.62 76.5971 152.667 71.6746C153.714 66.7521 153.54 61.8545 152.143 56.9817C150.747 52.1089 148.204 47.8328 144.514 44.1534Z" fill="#CC2C2C"/>
<path d="M144.514 44.1534C140.823 40.4739 136.535 37.963 131.648 36.6205C126.761 35.278 121.824 35.1537 116.838 36.2475C111.851 37.3414 107.413 39.6287 103.523 43.1092L93.5 52.0592L83.4768 43.1092C79.687 39.6287 75.2738 37.3414 70.2372 36.2475C65.2007 35.1537 60.239 35.278 55.352 36.6205C50.4651 37.963 46.1766 40.4739 42.4864 44.1534C38.7963 47.8328 36.2531 52.1089 34.8568 56.9817C33.4606 61.8545 33.286 66.7521 34.3332 71.6746C35.3804 76.5971 37.5995 80.9975 40.9904 84.8759L93.5 137.383L146.01 84.8759C149.401 80.9975 151.62 76.5971 152.667 71.6746C153.714 66.7521 153.54 61.8545 152.143 56.9817C150.747 52.1089 148.204 47.8328 144.514 44.1534Z" fill="#CC2C2C"/>
</svg>
